# xmcd CD database file
#
# Track frame offsets:
#	150
#	30683
#	41201
#	60148
#	86140
#	107624
#	123250
#	132489
#	156009
#	178290
#	196959
#
# Disc length: 2900 seconds
#
# Revision: 1
# Processed by: cddbd v1.5.2PL0 Copyright (c) Steve Scherf et al.
# Submitted via: jetAudio 7
#
DISCID=930b520b
DTITLE=Andre Andersen - Ocean View
DYEAR=2003
DGENRE=Instrumental Pop
TTITLE0=Horizons
TTITLE1=Martial Arts
TTITLE2=The Autumn Song
TTITLE3=Ocean View
TTITLE4=Heather Waltz
TTITLE5=Latin Affair
TTITLE6=Third Stage
TTITLE7=Arabesque
TTITLE8=Hourglass
TTITLE9=Moving Pictures
TTITLE10=1000 Miles Away
EXTD=YEAR: 2003
EXTT0=
EXTT1=
EXTT2=
EXTT3=
EXTT4=
EXTT5=
EXTT6=
EXTT7=
EXTT8=
EXTT9=
EXTT10=
PLAYORDER=
